<?xml version="1.0" standalone="no"?>
<!DOCTYPE svg PUBLIC "-//W3C//DTD SVG 20010904//EN"
 "http://www.w3.org/TR/2001/REC-SVG-20010904/DTD/svg10.dtd">
<svg version="1.0" xmlns="http://www.w3.org/2000/svg"
 width="2375.000000pt" height="876.000000pt" viewBox="0 0 2375.000000 876.000000"
 preserveAspectRatio="xMidYMid meet">

<g transform="translate(0.000000,876.000000) scale(0.100000,-0.100000)"
fill="#000000" stroke="none">
<path d="M1750 8533 c-421 -41 -767 -201 -1050 -483 -133 -134 -222 -258 -309
-435 -107 -216 -152 -377 -171 -610 -8 -89 -10 -952 -7 -2720 l3 -2590 22
-111 c69 -359 229 -653 489 -905 223 -215 488 -357 810 -431 l98 -23 10952 -2
10953 -3 0 3342 c0 2149 -4 3383 -10 3456 -20 224 -67 387 -170 597 -88 177
-177 301 -310 435 -246 245 -532 394 -905 468 -73 15 -980 16 -10220 17 -5577
1 -10156 0 -10175 -2z m6520 -1934 c140 -22 188 -81 197 -241 10 -175 -35
-272 -142 -303 -70 -21 -289 -30 -413 -16 -198 21 -245 74 -246 276 -1 69 4
125 13 150 26 77 85 120 186 135 77 12 332 11 405 -1z m8159 -153 l21 -19 0
-1218 0 -1218 -26 -20 c-26 -20 -38 -21 -331 -21 -300 0 -335 3 -355 34 -4 6
-8 74 -8 151 l0 140 -36 -55 c-121 -186 -295 -285 -519 -297 -313 -17 -538
133 -647 429 -101 278 -114 689 -32 1006 90 348 310 532 633 532 126 0 218
-21 317 -70 95 -47 182 -125 243 -219 l41 -64 0 444 c0 244 4 449 8 456 18 28
64 32 363 30 286 -2 308 -3 328 -21z m-12987 -3 c17 -15 18 -52 18 -762 0
-447 4 -774 10 -816 21 -139 90 -239 204 -292 58 -27 68 -28 206 -28 136 0
149 2 201 26 109 51 172 133 198 257 7 36 11 295 11 820 0 679 2 770 16 790
l15 22 346 0 c308 0 348 -2 365 -17 17 -15 18 -53 18 -792 0 -826 -2 -870 -50
-1040 -70 -249 -231 -446 -455 -558 -172 -86 -403 -133 -663 -133 -594 0 -974
221 -1112 648 -64 196 -63 181 -67 1050 -4 713 -3 796 12 818 l15 24 347 0
c308 0 348 -2 365 -17z m16613 11 c9 -4 280 -356 603 -783 629 -832 625 -827
571 -865 -20 -14 -64 -16 -341 -16 -274 0 -319 -2 -332 -16 -9 -8 -16 -18 -16
-20 0 -14 38 -68 265 -376 263 -356 271 -371 218 -405 -25 -16 -65 -18 -443
-21 -319 -2 -425 0 -455 10 -35 12 -64 47 -312 383 -150 204 -276 381 -280
394 -4 18 0 29 17 43 20 16 43 18 204 18 192 0 206 3 206 46 0 14 -101 158
-255 365 -161 215 -255 350 -255 365 0 48 27 54 248 54 121 0 211 4 223 10 42
23 24 54 -221 380 -132 175 -250 326 -262 335 -13 8 -41 15 -63 15 -22 0 -50
-7 -63 -15 -12 -9 -130 -160 -262 -335 -245 -326 -263 -357 -221 -380 12 -6
102 -10 223 -10 221 0 248 -6 248 -54 0 -15 -94 -150 -255 -365 -154 -207
-255 -351 -255 -365 0 -43 14 -46 206 -46 161 0 184 -2 204 -18 17 -14 21 -25
17 -43 -4 -13 -130 -190 -280 -394 -248 -336 -277 -371 -312 -383 -30 -10
-136 -12 -455 -10 -378 3 -418 5 -443 21 -53 34 -45 49 218 405 227 308 265
362 265 376 0 2 -7 12 -16 20 -13 14 -58 16 -332 16 -277 0 -321 2 -341 16
-53 37 -54 36 533 839 301 413 563 765 582 783 l34 32 684 0 c376 0 692 -3
701 -6z m-13081 -584 c203 -52 315 -168 378 -395 22 -79 22 -92 26 -780 l3
-701 -21 -19 c-21 -19 -40 -20 -334 -23 -238 -2 -317 1 -336 11 l-25 13 -5
594 c-5 469 -9 602 -19 630 -38 98 -93 131 -226 138 -127 6 -231 -12 -267 -48
l-28 -28 0 -634 c0 -532 -2 -637 -14 -654 -14 -18 -31 -19 -333 -22 -312 -3
-320 -2 -346 18 l-27 21 0 913 c0 772 2 915 14 932 14 18 31 19 336 22 279 2
326 1 346 -13 24 -15 24 -18 24 -182 l0 -167 27 55 c40 81 160 196 259 247 71
36 179 72 254 85 75 13 241 6 314 -13z m3377 -3 c71 -23 146 -64 191 -105 52
-46 112 -138 133 -203 l17 -50 21 42 c30 60 137 171 210 217 127 80 279 122
439 122 284 -1 468 -123 543 -361 41 -131 46 -246 43 -916 -3 -582 -4 -623
-21 -640 -16 -17 -44 -18 -342 -18 -298 0 -326 1 -342 18 -17 16 -18 59 -23
620 l-5 602 -25 45 c-37 66 -92 93 -200 98 -99 5 -195 -10 -230 -37 l-25 -18
-5 -646 c-5 -603 -6 -647 -23 -664 -16 -17 -44 -18 -342 -18 -298 0 -326 1
-342 18 -17 16 -18 59 -23 615 l-5 598 -26 49 c-18 36 -38 57 -70 75 -40 23
-54 25 -164 25 -133 0 -184 -12 -215 -52 -20 -25 -20 -39 -20 -663 0 -581 -1
-639 -17 -651 -13 -11 -80 -14 -338 -14 -304 0 -324 1 -344 19 l-21 19 0 913
0 913 26 20 c26 20 38 21 338 21 266 0 315 -2 334 -16 21 -15 22 -21 22 -182
l0 -166 27 55 c42 86 169 205 273 257 132 64 219 83 375 78 77 -3 149 -10 176
-19z m3119 8 c477 -72 730 -387 730 -910 0 -142 -10 -185 -51 -219 l-31 -26
-580 0 -580 0 7 -32 c20 -93 72 -166 146 -204 104 -52 143 -56 586 -63 405 -6
413 -6 434 -28 l22 -21 -27 -144 c-41 -217 -33 -202 -129 -232 -181 -56 -423
-81 -707 -73 -378 11 -622 93 -812 275 -127 122 -201 262 -244 462 -13 63 -18
129 -18 255 0 181 13 269 59 405 104 307 354 496 730 555 111 18 350 18 465 0z
m-5062 -31 l22 -15 0 -918 c0 -776 -2 -920 -14 -937 -14 -18 -31 -19 -333 -22
-312 -3 -320 -2 -346 18 l-27 21 0 913 c0 948 -1 935 40 949 8 3 155 6 325 6
266 1 314 -1 333 -15z m5672 -2994 c0 -110 3 -200 8 -200 4 0 29 7 56 15 64
20 169 19 236 -1 112 -33 194 -120 225 -239 18 -73 19 -213 1 -280 -59 -222
-263 -340 -474 -276 -39 12 -74 26 -77 31 -10 16 -23 11 -30 -10 -6 -19 -14
-21 -78 -18 l-72 3 -3 588 -2 587 105 0 105 0 0 -200z m2282 -286 l3 -486 25
-20 c19 -16 35 -19 72 -16 38 4 49 2 52 -11 5 -18 26 -131 26 -142 0 -10 -112
-39 -154 -39 -105 0 -189 54 -214 136 -9 30 -12 178 -12 553 l0 511 100 0 99
0 3 -486z m-3667 401 c33 -9 63 -20 67 -23 5 -6 -28 -171 -36 -180 -2 -1 -36
5 -77 14 -41 9 -123 17 -184 18 -95 1 -116 -2 -156 -22 -63 -31 -88 -82 -65
-137 19 -45 41 -58 190 -110 216 -75 288 -121 330 -208 14 -29 28 -73 31 -98
8 -58 -16 -159 -51 -212 -82 -124 -290 -182 -514 -143 -113 20 -201 46 -207
62 -4 12 31 161 41 171 3 3 42 -5 88 -17 103 -28 250 -38 313 -20 68 19 105
58 105 110 0 76 -14 88 -183 146 -206 72 -292 128 -340 219 -33 63 -31 182 6
257 44 90 123 151 240 183 70 20 317 14 402 -10z m778 -305 c208 -65 302 -331
206 -585 -30 -81 -112 -163 -194 -195 -84 -33 -243 -34 -326 -1 -156 60 -238
210 -226 411 11 192 100 321 256 371 78 25 201 24 284 -1z m1755 14 c25 -7 27
-29 8 -133 l-11 -65 -68 3 c-39 1 -90 -4 -122 -14 l-55 -16 0 -290 0 -290
-102 3 -103 3 0 390 0 390 70 3 c71 3 71 3 86 -28 l14 -31 28 21 c61 49 181
74 255 54z m547 -8 c92 -24 142 -62 181 -136 17 -32 19 -65 22 -347 l3 -313
-66 0 c-59 0 -67 2 -76 23 l-10 23 -57 -28 c-111 -55 -268 -45 -361 22 -87 63
-116 196 -66 297 50 99 122 133 303 140 l122 6 0 33 c0 104 -147 139 -371 88
-25 -6 -26 -4 -42 77 -9 45 -15 84 -13 86 2 3 44 13 92 23 106 22 268 25 339
6z"/>
<path d="M15360 5336 c-55 -28 -104 -90 -125 -159 -28 -92 -40 -262 -27 -384
19 -186 58 -266 152 -316 52 -27 61 -29 150 -25 82 3 102 7 142 30 76 45 78
55 78 434 0 380 0 381 -84 420 -73 34 -220 34 -286 0z"/>
<path d="M13189 5420 c-132 -23 -201 -109 -227 -282 l-9 -58 293 0 293 0 -5
53 c-16 160 -61 239 -159 275 -43 16 -132 22 -186 12z"/>
<path d="M14108 2488 l-28 -10 0 -199 0 -200 43 -19 c78 -36 191 -18 240 38
31 34 46 93 46 177 1 115 -36 186 -112 214 -35 14 -152 13 -189 -1z"/>
<path d="M13285 2491 c-46 -11 -72 -28 -98 -64 -34 -45 -47 -90 -47 -161 0
-78 14 -127 47 -166 36 -43 74 -60 135 -60 70 0 116 25 153 85 28 45 30 55 30
139 -1 128 -35 191 -122 222 -42 15 -54 15 -98 5z"/>
<path d="M15575 2178 c-41 -22 -56 -67 -39 -113 16 -40 129 -59 203 -34 l31
11 0 74 0 74 -87 0 c-49 0 -97 -6 -108 -12z"/>
</g>
</svg>
